<svg xmlns="http://www.w3.org/2000/svg" xmlns:xlink="http://www.w3.org/1999/xlink" width="2000" zoomAndPan="magnify" viewBox="0 0 1500 1499.999933" height="2000" preserveAspectRatio="xMidYMid meet" version="1.0"><defs><g/><clipPath id="5a010c1795"><path d="M 95 229 L 1198 229 L 1198 1446 L 95 1446 Z M 95 229 " clip-rule="nonzero"/></clipPath></defs><path fill="#ff751f" d="M 1388.875 1277.296875 L 1094.8125 768.070312 L 965.164062 992.890625 L 1194.121094 1389.570312 C 1214.8125 1425.429688 1252.601562 1445.84375 1291.496094 1445.84375 C 1310.53125 1445.84375 1329.839844 1440.878906 1347.496094 1430.671875 C 1401.5625 1399.5 1419.769531 1331.085938 1388.875 1277.296875 Z M 1388.875 1277.296875 " fill-opacity="1" fill-rule="nonzero"/><g clip-path="url(#5a010c1795)"><path fill="#ff751f" d="M 1182.535156 488.355469 L 1057.851562 704.347656 L 927.921875 929.167969 L 727.101562 1277.019531 C 666.964844 1381.292969 554.691406 1446.117188 434.417969 1446.117188 C 312.214844 1446.117188 202.703125 1382.949219 141.460938 1277.019531 C 80.222656 1171.367188 80.222656 1044.75 141.460938 938.824219 L 492.902344 330.566406 C 529.3125 267.394531 594.691406 229.601562 667.515625 229.601562 C 740.34375 229.601562 805.71875 267.394531 842.40625 330.566406 L 855.097656 352.632812 L 891.511719 415.527344 L 761.582031 640.347656 L 667.515625 477.59375 L 336.492188 1051.097656 C 306.976562 1102.128906 326.5625 1147.367188 336.492188 1164.472656 C 346.421875 1181.574219 375.664062 1221.296875 434.695312 1221.296875 C 474.96875 1221.296875 512.761719 1199.503906 532.625 1164.472656 L 798.269531 704.347656 L 928.199219 479.527344 L 987.78125 376.082031 C 1018.953125 322.289062 1087.640625 303.808594 1141.433594 334.980469 C 1195.226562 365.875 1213.707031 434.5625 1182.535156 488.355469 Z M 1182.535156 488.355469 " fill-opacity="1" fill-rule="nonzero"/></g><path fill="#ff751f" d="M 1127.917969 221.328125 C 1188.054688 356.769531 1388.597656 273.738281 1335.632812 135.261719 C 1275.222656 0.09375 1074.675781 83.125 1127.917969 221.328125 Z M 1127.917969 221.328125 " fill-opacity="1" fill-rule="nonzero"/><g fill="#ff751f" fill-opacity="1"><g transform="translate(770.288627, 987.316478)"><g><path d="M 12.125 -18.140625 L 8.234375 -12.3125 L -27.71875 -20.5625 L -24.65625 -25.125 L 5.1875 -18.234375 L 5.59375 -18.828125 L -12.265625 -43.6875 L -9.28125 -48.15625 Z M 12.125 -18.140625 "/></g></g></g><g fill="#ff751f" fill-opacity="1"><g transform="translate(790.582462, 956.943303)"><g><path d="M -29.4375 -29.96875 C -30.03125 -29.0625 -30.800781 -28.515625 -31.75 -28.328125 C -32.695312 -28.140625 -33.601562 -28.335938 -34.46875 -28.921875 C -35.332031 -29.503906 -35.851562 -30.265625 -36.03125 -31.203125 C -36.21875 -32.140625 -36.015625 -33.0625 -35.421875 -33.96875 C -34.816406 -34.863281 -34.046875 -35.40625 -33.109375 -35.59375 C -32.171875 -35.78125 -31.269531 -35.582031 -30.40625 -35 C -29.539062 -34.414062 -29.007812 -33.65625 -28.8125 -32.71875 C -28.625 -31.78125 -28.832031 -30.863281 -29.4375 -29.96875 Z M 3.328125 -4.984375 L -25.328125 -24.140625 L -22.5 -28.375 L 6.15625 -9.21875 Z M 3.328125 -4.984375 "/></g></g></g><g fill="#ff751f" fill-opacity="1"><g transform="translate(800.078381, 942.731045)"><g><path d="M 13.265625 -18.6875 C 11.847656 -16.550781 10.203125 -14.972656 8.328125 -13.953125 C 6.460938 -12.929688 4.546875 -12.414062 2.578125 -12.40625 L 2.3125 -11.78125 L 6.15625 -9.21875 L 3.328125 -4.984375 L -36.84375 -31.828125 L -34.015625 -36.0625 L -18.21875 -25.5 L -17.734375 -25.984375 C -19.566406 -30.367188 -19.097656 -34.640625 -16.328125 -38.796875 C -14.742188 -41.148438 -12.816406 -42.84375 -10.546875 -43.875 C -8.285156 -44.914062 -5.710938 -45.179688 -2.828125 -44.671875 C 0.0546875 -44.160156 3.144531 -42.804688 6.4375 -40.609375 C 9.6875 -38.429688 12.082031 -36.082031 13.625 -33.5625 C 15.164062 -31.050781 15.878906 -28.523438 15.765625 -25.984375 C 15.660156 -23.453125 14.828125 -21.019531 13.265625 -18.6875 Z M 8.796875 -20.203125 C 12.617188 -25.921875 10.84375 -31.242188 3.46875 -36.171875 C -0.363281 -38.734375 -3.664062 -39.863281 -6.4375 -39.5625 C -9.21875 -39.269531 -11.523438 -37.753906 -13.359375 -35.015625 C -15.148438 -32.328125 -15.664062 -29.570312 -14.90625 -26.75 C -14.144531 -23.9375 -11.894531 -21.28125 -8.15625 -18.78125 C -4.4375 -16.289062 -1.128906 -15.234375 1.765625 -15.609375 C 4.660156 -15.984375 7.003906 -17.515625 8.796875 -20.203125 Z M 8.796875 -20.203125 "/></g></g></g><g fill="#ff751f" fill-opacity="1"><g transform="translate(822.924132, 908.538493)"><g><path d="M 4.890625 -36.234375 L -8.265625 -16.53125 C -4.703125 -14.332031 -1.59375 -13.460938 1.0625 -13.921875 C 3.726562 -14.390625 5.96875 -15.972656 7.78125 -18.671875 C 9.144531 -20.710938 9.878906 -22.597656 9.984375 -24.328125 C 10.085938 -26.066406 9.597656 -27.8125 8.515625 -29.5625 L 8.890625 -30.109375 L 12.359375 -31.765625 C 13.878906 -29.546875 14.625 -27.125 14.59375 -24.5 C 14.5625 -21.882812 13.554688 -19.097656 11.578125 -16.140625 C 9.722656 -13.367188 7.582031 -11.347656 5.15625 -10.078125 C 2.726562 -8.816406 0.0507812 -8.390625 -2.875 -8.796875 C -5.8125 -9.203125 -8.925781 -10.503906 -12.21875 -12.703125 C -15.476562 -14.878906 -17.84375 -17.28125 -19.3125 -19.90625 C -20.789062 -22.539062 -21.421875 -25.207031 -21.203125 -27.90625 C -20.992188 -30.613281 -20.046875 -33.226562 -18.359375 -35.75 C -15.898438 -39.425781 -12.945312 -41.601562 -9.5 -42.28125 C -6.0625 -42.957031 -2.296875 -41.941406 1.796875 -39.234375 C 3.390625 -38.171875 4.4375 -37.421875 4.9375 -36.984375 Z M -1 -35.0625 C -4.101562 -37.03125 -6.773438 -37.835938 -9.015625 -37.484375 C -11.253906 -37.128906 -13.175781 -35.753906 -14.78125 -33.359375 C -16.457031 -30.847656 -17.070312 -28.410156 -16.625 -26.046875 C -16.1875 -23.691406 -14.554688 -21.34375 -11.734375 -19 Z M -1 -35.0625 "/></g></g></g><g fill="#ff751f" fill-opacity="1"><g transform="translate(843.339483, 877.983448)"><g><path d="M 8.40625 -22.421875 L 12.359375 -21.734375 C 12.566406 -20.609375 12.476562 -19.378906 12.09375 -18.046875 C 11.707031 -16.722656 11.085938 -15.421875 10.234375 -14.140625 C 6.578125 -8.660156 1.976562 -7.769531 -3.5625 -11.46875 L -21 -23.125 L -24.328125 -18.140625 L -27.8125 -20.46875 L -24.484375 -25.453125 L -30.53125 -29.5 L -28.40625 -34.203125 L -21.65625 -29.6875 L -15.5 -38.921875 L -12.015625 -36.59375 L -18.171875 -27.359375 L -1.15625 -15.984375 C 2.132812 -13.785156 4.734375 -14.117188 6.640625 -16.984375 C 7.679688 -18.546875 8.148438 -20.175781 8.046875 -21.875 Z M 8.40625 -22.421875 "/></g></g></g><g fill="#ff751f" fill-opacity="1"><g transform="translate(857.921878, 856.158415)"><g><path d="M 8.453125 -11.46875 C 6.554688 -8.644531 4.34375 -6.929688 1.8125 -6.328125 C -0.71875 -5.722656 -3.351562 -6.332031 -6.09375 -8.15625 C -7.78125 -9.289062 -8.972656 -10.597656 -9.671875 -12.078125 C -10.378906 -13.566406 -10.609375 -15.289062 -10.359375 -17.25 C -10.109375 -19.21875 -9.394531 -21.519531 -8.21875 -24.15625 C -7.164062 -26.46875 -6.492188 -28.3125 -6.203125 -29.6875 C -5.921875 -31.0625 -5.921875 -32.113281 -6.203125 -32.84375 C -6.492188 -33.570312 -7.046875 -34.207031 -7.859375 -34.75 C -9.160156 -35.613281 -10.453125 -35.832031 -11.734375 -35.40625 C -13.023438 -34.976562 -14.332031 -33.78125 -15.65625 -31.8125 C -16.894531 -29.957031 -17.597656 -28.125 -17.765625 -26.3125 C -17.929688 -24.507812 -17.675781 -22.582031 -17 -20.53125 L -17.34375 -20 L -21.671875 -19.875 C -22.398438 -22.125 -22.59375 -24.488281 -22.25 -26.96875 C -21.90625 -29.445312 -20.9375 -31.882812 -19.34375 -34.28125 C -17.082031 -37.65625 -14.675781 -39.644531 -12.125 -40.25 C -9.582031 -40.863281 -7.003906 -40.296875 -4.390625 -38.546875 L 10.8125 -28.390625 C 12.40625 -27.328125 13.65625 -27.472656 14.5625 -28.828125 C 14.863281 -29.273438 15.078125 -29.757812 15.203125 -30.28125 L 15.546875 -30.578125 L 18.8125 -29.109375 C 18.8125 -28.660156 18.695312 -28.140625 18.46875 -27.546875 C 18.238281 -26.960938 17.941406 -26.40625 17.578125 -25.875 C 16.523438 -24.289062 15.382812 -23.328125 14.15625 -22.984375 C 12.925781 -22.648438 11.5625 -22.820312 10.0625 -23.5 L 9.640625 -22.984375 C 10.609375 -21.160156 11 -19.304688 10.8125 -17.421875 C 10.632812 -15.546875 9.847656 -13.5625 8.453125 -11.46875 Z M 5.703125 -14.65625 C 6.765625 -16.238281 7.316406 -17.863281 7.359375 -19.53125 C 7.398438 -21.195312 6.960938 -22.785156 6.046875 -24.296875 C 5.128906 -25.816406 3.796875 -27.160156 2.046875 -28.328125 L -1.578125 -30.75 L -2.015625 -30.328125 C -1.992188 -29.390625 -2.140625 -28.359375 -2.453125 -27.234375 C -2.765625 -26.109375 -3.347656 -24.644531 -4.203125 -22.84375 C -5.085938 -21.03125 -5.625 -19.476562 -5.8125 -18.1875 C -6 -16.894531 -5.867188 -15.800781 -5.421875 -14.90625 C -4.984375 -14.007812 -4.238281 -13.207031 -3.1875 -12.5 C -1.5 -11.375 0.109375 -11.015625 1.640625 -11.421875 C 3.171875 -11.828125 4.523438 -12.90625 5.703125 -14.65625 Z M 5.703125 -14.65625 "/></g></g></g><g fill="#ff751f" fill-opacity="1"><g transform="translate(877.503943, 826.850523)"><g><path d="M 8.40625 -22.421875 L 12.359375 -21.734375 C 12.566406 -20.609375 12.476562 -19.378906 12.09375 -18.046875 C 11.707031 -16.722656 11.085938 -15.421875 10.234375 -14.140625 C 6.578125 -8.660156 1.976562 -7.769531 -3.5625 -11.46875 L -21 -23.125 L -24.328125 -18.140625 L -27.8125 -20.46875 L -24.484375 -25.453125 L -30.53125 -29.5 L -28.40625 -34.203125 L -21.65625 -29.6875 L -15.5 -38.921875 L -12.015625 -36.59375 L -18.171875 -27.359375 L -1.15625 -15.984375 C 2.132812 -13.785156 4.734375 -14.117188 6.640625 -16.984375 C 7.679688 -18.546875 8.148438 -20.175781 8.046875 -21.875 Z M 8.40625 -22.421875 "/></g></g></g><g fill="#ff751f" fill-opacity="1"><g transform="translate(892.086337, 805.02549)"><g><path d="M 9.28125 -12.703125 C 8.070312 -10.910156 6.71875 -9.40625 5.21875 -8.1875 C 3.71875 -6.96875 2.195312 -6.101562 0.65625 -5.59375 C -0.875 -5.09375 -2.304688 -4.976562 -3.640625 -5.25 L -4.5625 -9.46875 L -4.203125 -10.015625 C -2.160156 -10.003906 -0.34375 -10.414062 1.25 -11.25 C 2.851562 -12.09375 4.265625 -13.421875 5.484375 -15.234375 C 6.890625 -17.347656 7.550781 -19.226562 7.46875 -20.875 C 7.382812 -22.53125 6.609375 -23.851562 5.140625 -24.84375 C 4.015625 -25.59375 2.859375 -25.878906 1.671875 -25.703125 C 0.484375 -25.523438 -0.789062 -24.8125 -2.15625 -23.5625 L -6.5625 -19.53125 C -8.914062 -17.363281 -11.160156 -16.140625 -13.296875 -15.859375 C -15.441406 -15.578125 -17.515625 -16.101562 -19.515625 -17.4375 C -21.066406 -18.476562 -22.148438 -19.78125 -22.765625 -21.34375 C -23.390625 -22.914062 -23.515625 -24.65625 -23.140625 -26.5625 C -22.765625 -28.476562 -21.882812 -30.46875 -20.5 -32.53125 C -18.738281 -35.164062 -16.984375 -36.992188 -15.234375 -38.015625 C -13.492188 -39.035156 -11.679688 -39.53125 -9.796875 -39.5 L -9.0625 -35.546875 L -9.40625 -35.03125 C -11.070312 -34.820312 -12.5 -34.332031 -13.6875 -33.5625 C -14.882812 -32.789062 -15.976562 -31.660156 -16.96875 -30.171875 C -18.226562 -28.285156 -18.851562 -26.613281 -18.84375 -25.15625 C -18.84375 -23.695312 -18.203125 -22.539062 -16.921875 -21.6875 C -15.765625 -20.90625 -14.59375 -20.628906 -13.40625 -20.859375 C -12.21875 -21.097656 -10.820312 -21.960938 -9.21875 -23.453125 L -4.90625 -27.4375 C -2.644531 -29.539062 -0.457031 -30.6875 1.65625 -30.875 C 3.769531 -31.070312 5.851562 -30.484375 7.90625 -29.109375 C 9.59375 -27.984375 10.804688 -26.59375 11.546875 -24.9375 C 12.296875 -23.289062 12.492188 -21.421875 12.140625 -19.328125 C 11.785156 -17.234375 10.832031 -15.023438 9.28125 -12.703125 Z M 9.28125 -12.703125 "/></g></g></g><g fill="#ff751f" fill-opacity="1"><g transform="translate(909.793543, 778.523645)"><g><path d="M 8.40625 -22.421875 L 12.359375 -21.734375 C 12.566406 -20.609375 12.476562 -19.378906 12.09375 -18.046875 C 11.707031 -16.722656 11.085938 -15.421875 10.234375 -14.140625 C 6.578125 -8.660156 1.976562 -7.769531 -3.5625 -11.46875 L -21 -23.125 L -24.328125 -18.140625 L -27.8125 -20.46875 L -24.484375 -25.453125 L -30.53125 -29.5 L -28.40625 -34.203125 L -21.65625 -29.6875 L -15.5 -38.921875 L -12.015625 -36.59375 L -18.171875 -27.359375 L -1.15625 -15.984375 C 2.132812 -13.785156 4.734375 -14.117188 6.640625 -16.984375 C 7.679688 -18.546875 8.148438 -20.175781 8.046875 -21.875 Z M 8.40625 -22.421875 "/></g></g></g><g fill="#ff751f" fill-opacity="1"><g transform="translate(924.375937, 756.698613)"><g><path d="M -29.4375 -29.96875 C -30.03125 -29.0625 -30.800781 -28.515625 -31.75 -28.328125 C -32.695312 -28.140625 -33.601562 -28.335938 -34.46875 -28.921875 C -35.332031 -29.503906 -35.851562 -30.265625 -36.03125 -31.203125 C -36.21875 -32.140625 -36.015625 -33.0625 -35.421875 -33.96875 C -34.816406 -34.863281 -34.046875 -35.40625 -33.109375 -35.59375 C -32.171875 -35.78125 -31.269531 -35.582031 -30.40625 -35 C -29.539062 -34.414062 -29.007812 -33.65625 -28.8125 -32.71875 C -28.625 -31.78125 -28.832031 -30.863281 -29.4375 -29.96875 Z M 3.328125 -4.984375 L -25.328125 -24.140625 L -22.5 -28.375 L 6.15625 -9.21875 Z M 3.328125 -4.984375 "/></g></g></g><g fill="#ff751f" fill-opacity="1"><g transform="translate(933.871856, 742.486354)"><g><path d="M 11.53125 -16.09375 C 9.84375 -13.5625 7.75 -11.671875 5.25 -10.421875 C 2.757812 -9.179688 0.00390625 -8.726562 -3.015625 -9.0625 C -6.035156 -9.40625 -9.101562 -10.617188 -12.21875 -12.703125 C -15.351562 -14.796875 -17.65625 -17.171875 -19.125 -19.828125 C -20.59375 -22.492188 -21.226562 -25.21875 -21.03125 -28 C -20.84375 -30.78125 -19.90625 -33.4375 -18.21875 -35.96875 C -16.1875 -39 -14 -41.023438 -11.65625 -42.046875 C -9.320312 -43.078125 -6.9375 -43.351562 -4.5 -42.875 L -4.34375 -38.609375 L -4.703125 -38.09375 C -6.796875 -38.363281 -8.613281 -38.132812 -10.15625 -37.40625 C -11.707031 -36.675781 -13.128906 -35.351562 -14.421875 -33.4375 C -15.597656 -31.664062 -16.21875 -29.832031 -16.28125 -27.9375 C -16.34375 -26.050781 -15.785156 -24.1875 -14.609375 -22.34375 C -13.441406 -20.5 -11.65625 -18.769531 -9.25 -17.15625 C -6.863281 -15.5625 -4.59375 -14.582031 -2.4375 -14.21875 C -0.28125 -13.863281 1.65625 -14.066406 3.375 -14.828125 C 5.101562 -15.585938 6.554688 -16.851562 7.734375 -18.625 C 9.066406 -20.613281 9.71875 -22.5625 9.6875 -24.46875 C 9.664062 -26.375 8.9375 -28.347656 7.5 -30.390625 L 7.859375 -30.9375 L 11.359375 -32.625 C 13.265625 -30.269531 14.269531 -27.671875 14.375 -24.828125 C 14.488281 -21.992188 13.539062 -19.082031 11.53125 -16.09375 Z M 11.53125 -16.09375 "/></g></g></g></svg>